{"title":"Bloodlust Zombies 2011 DvDScr XviD Feel-Free","uid":6485961,"size":783438204,"categoryP":"video","categoryS":"movies","magnet":"?xt=urn:btih:c54188e8734d20c53d754e5c59e8eb0269d389ea&amp;dn=Bloodlust+Zombies+2011+DvDScr+XviD+Feel-Free&amp;tr=udp%3A%2F%2Ftracker.openbittorrent.com%3A80&amp;tr=udp%3A%2F%2Fopen.demonii.com%3A1337&amp;tr=udp%3A%2F%2Ftracker.coppersurfer.tk%3A6969&amp;tr=udp%3A%2F%2Fexodus.desync.com%3A6969","seeders":0,"leechers":1,"uploader":"hiest","files":-1,"time":1308712847,"description":" Full Credits To Feel Free :)\n\n ######## ######## ######## ##          ######## ########  ######## ######## \n ##       ##       ##       ##          ##       ##     ## ##       ##       \n ##       ##       ##       ##          ##       ##     ## ##       ##       \n ######   ######   ######   ##          ######   ########  ######   ######   \n ##       ##       ##       ##          ##       ##   ##   ##       ##       \n ##       ##       ##       ##          ##       ##    ##  ##       ##       \n ##       ######## ######## ########    ##       ##     ## ######## ########\n\n Genre:Horror\n Language:English\n &lt;a href=&quot; http://www.imdb.com/title/tt1904850/&quot; rel=&quot;nofollow&quot; target=&quot;_NEW&quot;&gt; http://www.imdb.com/title/tt1904850/&lt;/a&gt;\n Source:DVDSCR Thanks!\n\n Format : AVI\n Format/Info : Audio Video Interleave\n File size : 745 MiB\n Duration : 1h 16mn\n Overall bit rate : 1 370 Kbps\n\n Video\n ID : 0\n Format : MPEG-4 Visual\n Format profile : Advanced Simple@L5\n Format settings, BVOP : Yes\n Format settings, QPel : No\n Format settings, GMC : No warppoints\n Format settings, Matrix : Default (H.263)\n Codec ID : XVID\n Codec ID/Hint : XviD\n Duration : 1h 16mn\n Bit rate : 1 137 Kbps\n Width : 640 pixels\n Height : 368 pixels\n Display aspect ratio : 16:9\n Frame rate : 23.976 fps\n Color space : YUV\n Chroma subsampling : 4:2:0\n Bit depth : 8 bits\n Scan type : Progressive\n Bits/(Pixel*Frame) : 0.201\n Stream size : 619 MiB (83%)\n Writing library : XviD 1.2.1 (UTC 2008-12-04)\n\n Audio\n ID : 1\n Format : AC-3\n Format/Info : Audio Coding 3\n Mode extension : CM (complete main)\n Codec ID : 2000\n Duration : 1h 16mn\n Bit rate mode : Constant\n Bit rate : 224 Kbps\n Channel(s) : 2 channels\n Channel positions : Front: L R\n Sampling rate : 48.0 KHz\n Bit depth : 16 bits\n Stream size : 122 MiB (16%)\n Alignment : Aligned on interleaves\n Interleave, duration : 42 ms (1.00 video frame)\n Interleave, preload duration : 512 ms\n\n\n\n\n\n\n==================================          &lt;a href=&quot;\nhttp://thepiratebay.se/user/hiest&quot; rel=&quot;nofollow&quot; target=&quot;_NEW&quot;&gt;\nhttp://thepiratebay.se/user/hiest&lt;/a&gt;\n==================================\n\n\n\n\n\n\n Screen Shots:\n\n &lt;a href=&quot; http://leetleech.org/images/66620865322310055523.png&quot; rel=&quot;nofollow&quot; target=&quot;_NEW&quot;&gt; http://leetleech.org/images/66620865322310055523.png&lt;/a&gt;\n\n &lt;a href=&quot; http://leetleech.org/images/97474407034290265413.png&quot; rel=&quot;nofollow&quot; target=&quot;_NEW&quot;&gt; http://leetleech.org/images/97474407034290265413.png&lt;/a&gt;\n\n &lt;a href=&quot; http://leetleech.org/images/10097169823845013323.png&quot; rel=&quot;nofollow&quot; target=&quot;_NEW&quot;&gt; http://leetleech.org/images/10097169823845013323.png&lt;/a&gt;\n\n &lt;a href=&quot; http://leetleech.org/images/88536891614655640441.png&quot; rel=&quot;nofollow&quot; target=&quot;_NEW&quot;&gt; http://leetleech.org/images/88536891614655640441.png&lt;/a&gt;\n\n &lt;a href=&quot; http://leetleech.org/images/28524273175163580739.png&quot; rel=&quot;nofollow&quot; target=&quot;_NEW&quot;&gt; http://leetleech.org/images/28524273175163580739.png&lt;/a&gt;\n\n\n Plot:\n A military weapons manufacturer creates a chemical weapon that causes victims \n to become blood-lusting killers. A lab accident causes the building to go into \n lock-down and the employees are trapped inside with the crazed killers.\n\n Full Credits To Feel Free :)\n\n ######## ######## ######## ##          ######## ########  ######## ######## \n ##       ##       ##       ##          ##       ##     ## ##       ##       \n ##       ##       ##       ##          ##       ##     ## ##       ##       \n ######   ######   ######   ##          ######   ########  ######   ######   \n ##       ##       ##       ##          ##       ##   ##   ##       ##       \n ##       ##       ##       ##          ##       ##    ##  ##       ##       \n ##       ######## ######## ########    ##       ##     ## ######## ######## ","torrent":{"xt":"urn:btih:c54188e8734d20c53d754e5c59e8eb0269d389ea","amp;dn":"Bloodlust+Zombies+2011+DvDScr+XviD+Feel-Free","amp;tr":["udp%3A%2F%2Ftracker.openbittorrent.com%3A80","udp%3A%2F%2Fopen.demonii.com%3A1337","udp%3A%2F%2Ftracker.coppersurfer.tk%3A6969","udp%3A%2F%2Fexodus.desync.com%3A6969"],"infoHash":"c54188e8734d20c53d754e5c59e8eb0269d389ea","infoHashBuffer":{"type":"Buffer","data":[197,65,136,232,115,77,32,197,61,117,78,92,89,232,235,2,105,211,137,234]},"announce":[],"urlList":[]}}